# xmcd
#
# Track frame offsets:
#	150
#	5401
#	20891
#	35684
#	50736
#	74093
#	89016
#	104522
#	119510
#	138747
#	159314
#	176363
#
# Disc length: 2524 seconds
#
# Revision: 1
# Processed by: cddbd v1.5.1PL2 Copyright (c) Steve Scherf et al.
# Submitted via: EasyCDDAExtractor 6.2.0.3
#
DISCID=b309da0c
DTITLE=Gretchen Wilson - Casino Rama, Rama, ON (08/28/2005) [CD1]
DYEAR=2005
DGENRE=Country
TTITLE0=Intro
TTITLE1=Here For The Party
TTITLE2=Homewrecker
TTITLE3=When It Rains
TTITLE4=When I Think About Cheatin'
TTITLE5=Skoal Ring
TTITLE6=Politically Incorrect
TTITLE7=Full Time Job
TTITLE8=Rebel Child
TTITLE9=One Bud Wiser
TTITLE10=I Don't Feel Like Loving You Today
TTITLE11=California Girls
EXTD=
EXTT0=
EXTT1=
EXTT2=
EXTT3=
EXTT4=
EXTT5=
EXTT6=
EXTT7=
EXTT8=
EXTT9=
EXTT10=
EXTT11=
PLAYORDER=
